<svg width="18" height="18" viewBox="0 0 200 200" xmlns="http://www.w3.org/2000/svg">
  <rect x="10" y="10" width="180" height="180" rx="40" ry="40" fill="#0B0F14"/>
  <g transform="translate(48,36)">
    <rect x="0" y="0" width="22" height="128" rx="11" fill="#E8EDF3"/>
    <path d="M 18,64 C 28,54 48,32 66,18 C 76,10 84,8 88,14 C 90,18 86,24 80,28 C 64,40 44,56 30,66 C 24,70 20,68 18,64 Z" fill="#E8EDF3"/>
    <path d="M 18,64 C 28,74 48,96 66,110 C 76,118 84,120 88,114 C 90,110 86,104 80,100 C 64,88 44,72 30,62 C 24,58 20,60 18,64 Z" fill="#E8EDF3"/>
    <circle cx="20" cy="64" r="11" fill="#E04E28"/>
  </g>
</svg>
